<?xml version="1.0" encoding="UTF-8" standalone="no"?>
<!-- Created with Inkscape (http://www.inkscape.org/) -->

<svg
   width="169.69534mm"
   height="167.44244mm"
   viewBox="0 0 169.69534 167.44244"
   version="1.1"
   id="svg1"
   inkscape:version="1.3 (0e150ed6c4, 2023-07-21)"
   sodipodi:docname="lifecom.svg"
   xmlns:inkscape="http://www.inkscape.org/namespaces/inkscape"
   xmlns:sodipodi="http://sodipodi.sourceforge.net/DTD/sodipodi-0.dtd"
   xmlns="http://www.w3.org/2000/svg"
   xmlns:svg="http://www.w3.org/2000/svg">
  <sodipodi:namedview
     id="namedview1"
     pagecolor="#ffffff"
     bordercolor="#666666"
     borderopacity="1.0"
     inkscape:showpageshadow="2"
     inkscape:pageopacity="0.0"
     inkscape:pagecheckerboard="0"
     inkscape:deskcolor="#d1d1d1"
     inkscape:document-units="mm"
     inkscape:zoom="1.0041055"
     inkscape:cx="352.05463"
     inkscape:cy="535.30231"
     inkscape:window-width="1920"
     inkscape:window-height="1137"
     inkscape:window-x="1912"
     inkscape:window-y="-8"
     inkscape:window-maximized="1"
     inkscape:current-layer="layer1" />
  <defs
     id="defs1">
    <inkscape:path-effect
       effect="skeletal"
       id="path-effect9"
       is_visible="true"
       lpeversion="1"
       pattern="M 78.386385,224.14743 H 94.2798 v 0.80119 A 19.321769,19.321769 135 0 1 74.958031,244.27039 H 59.437263 v -1.17384 a 18.949122,18.949122 135 0 1 18.949122,-18.94912 z"
       copytype="repeated"
       prop_scale="0.96"
       scale_y_rel="false"
       spacing="-1.1"
       normal_offset="0"
       tang_offset="0"
       prop_units="false"
       vertical_pattern="false"
       hide_knot="false"
       fuse_tolerance="0" />
    <inkscape:path-effect
       effect="bspline"
       id="path-effect8"
       is_visible="true"
       lpeversion="1.3"
       weight="33.333333"
       steps="2"
       helper_size="0"
       apply_no_weight="true"
       apply_with_weight="true"
       only_selected="false"
       uniform="false" />
    <inkscape:path-effect
       effect="skeletal"
       id="path-effect7"
       is_visible="true"
       lpeversion="1"
       pattern="M 78.386385,224.14743 H 94.2798 v 0.80119 A 19.321769,19.321769 135 0 1 74.958031,244.27039 H 59.437263 v -1.17384 a 18.949122,18.949122 135 0 1 18.949122,-18.94912 z"
       copytype="repeated"
       prop_scale="0.96"
       scale_y_rel="false"
       spacing="-1.1"
       normal_offset="0"
       tang_offset="0"
       prop_units="false"
       vertical_pattern="false"
       hide_knot="false"
       fuse_tolerance="0" />
    <inkscape:path-effect
       effect="bspline"
       id="path-effect5"
       is_visible="true"
       lpeversion="1.3"
       weight="33.333333"
       steps="2"
       helper_size="0"
       apply_no_weight="true"
       apply_with_weight="true"
       only_selected="false"
       uniform="false" />
    <inkscape:path-effect
       effect="powerstroke"
       id="path-effect2"
       is_visible="true"
       lpeversion="1.3"
       scale_width="1"
       interpolator_type="CentripetalCatmullRom"
       interpolator_beta="0.2"
       start_linecap_type="zerowidth"
       end_linecap_type="zerowidth"
       offset_points="0.19732162,0.10182747 | 4.1311202,0.46576399 | 7.8064714,0.14337152"
       linejoin_type="round"
       miter_limit="4"
       not_jump="false"
       sort_points="true"
       message="&lt;b&gt;Ctrl + click&lt;/b&gt; on existing node and move it" />
  </defs>
  <g
     inkscape:label="Layer 1"
     inkscape:groupmode="layer"
     id="layer1"
     transform="translate(-28.729182,-28.738988)">
    <path
       style="fill:#000000;fill-rule:nonzero;stroke:none;stroke-width:0.665;stroke-linecap:butt;stroke-linejoin:miter;stroke-dasharray:none;stroke-opacity:1"
       d="m 72.908533,98.545359 c 0.0098,-0.0097 0.01457,-0.08919 -0.829437,-0.971462 -0.568167,-0.593927 -1.774459,-1.828313 -3.553465,-3.567005 -0.532152,-0.520092 -1.113812,-1.082452 -1.68783,-1.626346 -0.520298,-0.492992 -1.047116,-0.982931 -1.523181,-1.40924 -0.224925,-0.201416 -0.44033,-0.390248 -0.639031,-0.558883 -0.191942,-0.1629 -0.37024,-0.308605 -0.527288,-0.428933 -0.07684,-0.05887 -0.149468,-0.112346 -0.216741,-0.159115 -0.06606,-0.04592 -0.128771,-0.08666 -0.186468,-0.120042 -0.05567,-0.03221 -0.113281,-0.06148 -0.168911,-0.08103 -0.02791,-0.0098 -0.05992,-0.01883 -0.09432,-0.02352 -0.03347,-0.0046 -0.07769,-0.0062 -0.12603,0.0057 -0.273958,0.06627 -0.587746,0.17594 -0.947311,0.31699 -0.349404,0.137064 -0.730112,0.298878 -1.169995,0.482815 -0.817207,0.341714 -1.84397,0.762624 -3.016355,1.117059 -1.123295,0.339595 -2.423946,0.632396 -3.879181,0.74325 -1.407125,0.107189 -2.976184,0.04583 -4.692777,-0.318399 -5.174723,-1.089701 -8.920306,-2.649084 -11.524828,-4.404688 -1.282732,-0.864638 -2.273522,-1.766713 -3.019781,-2.666503 -0.749793,-0.90405 -1.250361,-1.802825 -1.555111,-2.657181 -0.31444,-0.881352 -0.56017,-1.99111 -0.66368,-3.206101 -0.106219,-1.246804 -0.06079,-2.578172 0.19441,-3.884374 0.265079,-1.356741 0.750462,-2.65764 1.499538,-3.817214 0.789225,-1.221726 1.85874,-2.268157 3.245776,-3.075822 a 0.02784632,0.18923189 50.526421 0 0 0.01186,-0.0072 c 0.550224,-0.342608 1.220634,-0.688682 1.984752,-1.019187 0.03815,-0.0165 0.07652,-0.03296 0.115109,-0.04937 0.736897,-0.313384 1.583877,-0.622911 2.529859,-0.907257 1.894604,-0.569484 4.213137,-1.045437 6.811463,-1.22535 2.479262,-0.171668 5.235905,-0.07487 8.108238,0.486806 2.782603,0.544128 5.68732,1.527341 8.552431,3.138399 a 0.13323489,0.01440404 34.623231 0 0 0.01309,0.0071 c 1.553926,0.805728 2.809853,1.795212 3.812038,2.873562 0.992454,1.067881 1.729879,2.216348 2.258559,3.343709 0.528734,1.127475 0.844812,2.225603 1.000061,3.187445 0.07805,0.483583 0.11511,0.930493 0.118829,1.327937 0.0038,0.401243 -0.02649,0.747452 -0.08059,1.028822 -0.03812,0.20277 -0.107431,0.426764 -0.204911,0.667964 -0.09853,0.243802 -0.223821,0.500237 -0.369585,0.764047 -0.299227,0.541553 -0.679598,1.105 -1.079332,1.643813 -0.852475,1.149077 -1.827502,2.231057 -2.373851,2.827013 -0.04336,0.04613 -0.06732,0.09606 -0.08104,0.134956 -0.01398,0.03963 -0.02087,0.07789 -0.02449,0.110301 -0.0072,0.06432 -0.0043,0.132338 0.0019,0.195583 0.0065,0.06616 0.01793,0.138937 0.0326,0.215482 0.01496,0.07808 0.03391,0.163214 0.05602,0.253721 0.04515,0.184848 0.104921,0.398081 0.174744,0.62945 0.07227,0.239491 0.156272,0.501584 0.247934,0.776931 0.403457,1.211961 0.975281,2.740915 1.459155,3.99615 0.872737,2.264006 1.518978,3.819194 1.836104,4.545193 0.455046,1.04174 0.551855,1.057561 0.570752,1.049986 0.02158,-0.0087 0.07365,-0.08408 -0.303979,-1.155125 -0.263188,-0.746461 -0.857709,-2.321094 -1.679624,-4.59801 -0.4538,-1.257146 -0.999494,-2.802588 -1.370606,-4.002546 -0.08465,-0.273727 -0.161106,-0.532259 -0.22562,-0.766731 -0.06251,-0.227192 -0.11357,-0.430916 -0.149875,-0.602919 -0.01773,-0.08402 -0.03174,-0.159496 -0.04179,-0.225588 -0.01,-0.0655 -0.01569,-0.119582 -0.01759,-0.161839 -0.0018,-0.04098 0.0012,-0.06941 0.0028,-0.07169 8.14e-4,-0.0011 0.0014,0.0045 -0.0038,0.02045 -0.0046,0.01412 -0.01688,0.04405 -0.04629,0.07564 0.586343,-0.584847 1.595036,-1.644856 2.504131,-2.815395 0.42287,-0.544482 0.835906,-1.128149 1.169164,-1.702025 0.162724,-0.280215 0.308475,-0.561595 0.427383,-0.837712 0.117145,-0.272026 0.21055,-0.544267 0.267335,-0.80928 0.07259,-0.343018 0.111845,-0.744098 0.113503,-1.188632 0.0016,-0.441887 -0.03385,-0.930827 -0.112781,-1.453351 -0.156967,-1.039147 -0.486243,-2.215415 -1.041208,-3.42032 -0.555419,-1.205889 -1.334935,-2.435773 -2.388318,-3.580442 -1.063004,-1.155122 -2.394187,-2.211843 -4.035175,-3.07063 -2.951497,-1.66577 -5.94509,-2.684315 -8.811739,-3.249409 -2.959983,-0.583493 -5.798171,-0.686443 -8.348024,-0.512611 -2.67183,0.182149 -5.059004,0.669779 -7.015917,1.257246 -0.97746,0.293435 -1.856832,0.614408 -2.626598,0.941979 -0.04033,0.01716 -0.08045,0.03438 -0.120361,0.05166 -0.79491,0.344087 -1.505715,0.710301 -2.101215,1.081921 -1.510063,0.883037 -2.681906,2.033434 -3.544218,3.377639 -0.817336,1.274095 -1.335412,2.689635 -1.61228,4.143961 -0.266358,1.399116 -0.305588,2.814992 -0.184443,4.132772 0.117911,1.282601 0.387405,2.464768 0.738967,3.418907 0.350508,0.951429 0.91227,1.928802 1.727256,2.892977 0.810754,0.959169 1.869003,1.901649 3.212707,2.791864 2.724405,1.804941 6.578276,3.36637 11.817767,4.439034 1.790591,0.363978 3.425945,0.411539 4.888555,0.283609 1.511575,-0.132213 2.854681,-0.453491 4.004309,-0.819469 1.1994,-0.381823 2.240711,-0.830236 3.053819,-1.190449 0.443185,-0.196334 0.807484,-0.361602 1.149008,-0.506504 0.349338,-0.148217 0.63531,-0.257777 0.87506,-0.326052 -0.02801,0.0067 -0.04713,0.0039 -0.05257,0.0027 -0.0069,-0.0015 -0.0048,-0.0024 0.0023,-8.38e-4 0.01613,0.0036 0.04701,0.01561 0.09078,0.03813 0.04369,0.02248 0.09609,0.0532 0.156587,0.09204 0.06116,0.03926 0.129227,0.08592 0.203447,0.139317 0.151952,0.109313 0.327361,0.245146 0.519578,0.400733 0.198574,0.160734 0.414772,0.342292 0.641619,0.537415 0.47996,0.412839 1.012925,0.890992 1.540123,1.373176 0.580313,0.530765 1.173042,1.084185 1.712557,1.592353 1.136345,1.070323 2.506253,2.398683 3.642595,3.469002 0.933498,0.881259 0.960938,0.838954 0.972968,0.826983 z"
       id="path2"
       sodipodi:nodetypes="csszccssc"
       inkscape:path-effect="#path-effect2"
       inkscape:original-d="m 72.908533,98.545359 c 0,0 -8.834169,-8.877453 -9.49135,-8.705441 -2.092322,0.547651 -6.910346,3.888745 -13.838183,2.45029 -10.535991,-2.187631 -15.111231,-6.295291 -16.428726,-9.926122 -1.317495,-3.630831 -1.528279,-11.048632 4.442138,-14.530225 4.493255,-2.80295 17.065042,-6.055857 28.568632,0.42656 6.439137,3.352622 7.799171,9.730389 7.290006,12.239292 -0.377669,1.86096 -2.913329,4.694288 -4.197846,6.033625 -0.44724,0.466326 4.055029,11.698058 4.055029,11.698058"
       transform="matrix(3.6641318,0,0,3.6641318,-88.32401,-164.91721)" />
    <path
       style="fill:none;stroke:#000000;stroke-width:1.165;stroke-linecap:butt;stroke-linejoin:miter;stroke-dasharray:none;stroke-opacity:1"
       d="m 183.63197,112.66548 c 0.25938,-0.0599 0.52524,-0.11146 0.79781,-0.1529 0.87215,-0.10007 1.7267,-0.086 2.55335,0.015 l -0.0173,0.13333 c -0.16716,1.28675 -1.24343,2.3775 -2.12006,2.97928 0,0 0,0 0,0 -0.28832,0.18452 -0.59076,0.33296 -0.92474,0.43775 -0.70517,0.22126 -1.44964,0.58094 -2.24997,0.96151 l -0.0876,-0.17719 c -0.36923,-0.747 -0.43636,-1.64835 -0.10072,-2.45663 0.33839,-0.81493 1.0857,-1.49443 2.14924,-1.74018 z m 5.83815,0.43196 c 0.42499,0.14191 0.8378,0.30224 1.23659,0.47616 0.53223,0.21937 1.06247,0.46584 1.58397,0.74406 l -0.0633,0.11925 c -0.51515,0.97021 -1.57219,1.62454 -2.63619,1.80667 0,0 0,0 0,0 -0.59316,0.11035 -1.1739,0.0833 -1.7037,-0.0709 -0.75914,-0.221 -1.50583,-0.36069 -2.21851,-0.36209 l 7e-4,-0.19636 c 0.003,-0.84689 0.30341,-1.64911 1.05826,-2.17919 0.74612,-0.52395 1.78709,-0.65653 2.7422,-0.3376 z m 4.93556,2.58386 c 0.0697,0.0541 0.139,0.10904 0.20791,0.16476 0.78822,0.62382 1.50322,1.39543 2.06749,2.30049 l -0.11359,0.0721 c -1.13429,0.71966 -3.04608,0.61624 -4.03447,0.17491 0,0 0,0 0,0 -0.21926,-0.096 -0.42716,-0.21195 -0.6233,-0.34915 -0.6361,-0.44498 -1.34658,-0.82537 -2.09775,-1.16429 l 0.081,-0.18055 c 0.69744,-1.55542 2.70896,-2.41922 4.51275,-1.01823 z m 3.31824,5.11394 c 0.20209,1.18847 0.13496,2.36194 -0.12543,3.45862 l -0.13174,-0.0324 c -1.65273,-0.40646 -2.73938,-2.0818 -3.15132,-3.19878 0,0 0,0 0,0 -0.002,-0.008 -0.004,-0.0152 -0.006,-0.0228 -0.15801,-0.60029 -0.5209,-1.17605 -0.99522,-1.71001 l 0.14943,-0.13041 c 1.08726,-0.94886 3.08207,-1.20716 4.05821,0.92267 0,0 0,0 0,0 0.0931,0.22997 0.16079,0.46988 0.20215,0.71311 z m -1.06184,5.89627 c -0.47434,0.92551 -1.02363,1.78974 -1.6241,2.60164 l -0.10788,-0.0805 c -1.3809,-1.0303 -1.64665,-3.02233 -1.12149,-4.38338 0.0162,-0.0444 0.0333,-0.0883 0.0514,-0.13174 0.29075,-0.69855 0.51098,-1.41657 0.58995,-2.09652 l 0.19611,0.0188 c 0.77129,0.074 1.48996,0.38403 1.95657,1.08357 0.46211,0.6928 0.57483,1.64669 0.25002,2.54187 -0.053,0.15305 -0.11676,0.3023 -0.19053,0.44624 z m -3.14668,4.44918 c -0.667,0.73411 -1.36623,1.42302 -2.07392,2.07569 l -0.0923,-0.0989 c -1.23337,-1.32145 -1.08712,-3.4189 0.0333,-4.69086 0.55913,-0.63477 1.07227,-1.28693 1.51728,-1.96481 l 0.16472,0.10764 c 1.46255,0.95576 1.86489,3.01505 0.45094,4.57124 z m -3.78381,3.60103 c -0.7244,0.62362 -1.46188,1.2287 -2.21008,1.81742 l -0.0833,-0.10599 c -1.11052,-1.41231 -0.80983,-3.48595 0.52292,-4.66013 0.24519,-0.21601 0.48823,-0.43415 0.72903,-0.65451 0.40634,-0.37816 0.80735,-0.75834 1.19756,-1.14263 l 0.13919,0.14177 c 0.82097,0.8362 1.10641,2.05124 0.67803,3.2069 0,0 0,0 0,0 -0.19632,0.53507 -0.53295,1.01807 -0.97331,1.39717 z m -4.01982,3.19612 c -0.76383,0.56402 -1.5365,1.11343 -2.31568,1.65043 l -0.0766,-0.11119 c -1.02098,-1.48233 -0.58958,-3.53618 0.85266,-4.61668 0.70967,-0.53167 1.40787,-1.075 2.09242,-1.63202 l 0.12469,0.15318 c 1.11181,1.36596 0.86158,3.41978 -0.67751,4.55628 z m -4.19147,2.91287 c -0.78806,0.51858 -1.58074,1.02649 -2.37569,1.52593 l -0.0719,-0.11417 c -0.95763,-1.52121 -0.44493,-3.55813 1.0774,-4.57171 0.74447,-0.49567 1.48149,-0.99923 2.2089,-1.51274 l 0.11411,0.1615 c 1.01786,1.44054 0.62645,3.47193 -0.95284,4.51119 z m -4.2901,2.70941 c -0.8037,0.48806 -1.61192,0.96806 -2.42433,1.44033 l -0.0678,-0.11662 c -0.9029,-1.55328 -0.32107,-3.57128 1.24045,-4.52896 0.4503,-0.27616 0.89893,-0.55488 1.34584,-0.83623 0.31197,-0.19675 0.62316,-0.39441 0.93339,-0.59311 l 0.10656,0.16659 c 0.49237,0.76976 0.61997,1.71904 0.33671,2.61389 -0.24236,0.76479 -0.76696,1.42666 -1.47083,1.85411 z m -4.37623,2.55591 c -0.81886,0.46016 -1.64163,0.91287 -2.46797,1.35848 l -0.064,-0.11876 c -0.85285,-1.58176 -0.20657,-3.58054 1.39019,-4.48583 0.78063,-0.44258 1.55706,-0.89194 2.32898,-1.34839 l 0.10059,0.17011 c 0.89683,1.51662 0.34427,3.50725 -1.28777,4.42439 z m -4.45202,2.41141 c -0.83181,0.43447 -1.6669,0.86211 -2.50494,1.28326 l -0.0606,-0.12056 c -0.80699,-1.60583 -0.1035,-3.58578 1.52408,-4.44299 0.79499,-0.41871 1.58637,-0.8436 2.37383,-1.27501 l 0.095,0.17334 c 0.84675,1.54537 0.2291,3.51674 -1.42736,4.38196 z m -4.51583,2.27883 c -0.56463,0.27544 -1.13047,0.54808 -1.69739,0.81803 -0.27897,0.1329 -0.55824,0.26518 -0.8378,0.39683 l -0.0575,-0.12206 c -0.35262,-0.74888 -0.39274,-1.61093 -0.12088,-2.40814 0.29486,-0.86482 0.93199,-1.58377 1.76296,-1.99246 0.80718,-0.39698 1.61134,-0.79957 2.41217,-1.20809 l 0.0898,0.17609 c 0.80093,1.57002 0.12502,3.52201 -1.55141,4.3398 z m -4.5687,2.15912 c -0.85193,0.39002 -1.70655,0.77427 -2.56378,1.15271 l -0.0545,-0.12344 c -0.72567,-1.64389 0.0751,-3.58705 1.74979,-4.35947 0.7631,-0.35197 1.52402,-0.70864 2.2827,-1.06995 0.0539,-0.0257 0.10773,-0.0514 0.16157,-0.0771 l 0.0852,0.17838 c 0.15207,0.31853 0.24843,0.66093 0.28431,1.01359 0.13853,1.36191 -0.63981,2.68762 -1.94527,3.28526 z m -4.62007,2.04715 c -0.86135,0.3691 -1.72524,0.73233 -2.59161,1.08962 l -0.0514,-0.12474 c -0.68509,-1.66125 0.16321,-3.58428 1.85615,-4.31558 0.82627,-0.35693 1.65016,-0.71935 2.47162,-1.08721 l 0.0808,0.18041 c 0.72026,1.60825 -0.0531,3.52369 -1.76552,4.2575 z m -4.66951,1.93324 c -0.87026,0.34777 -1.74294,0.68955 -2.61795,1.02527 l -0.0483,-0.12597 c -0.6437,-1.67767 0.25195,-3.5791 1.96218,-4.26844 0.83476,-0.33646 1.66728,-0.67854 2.49748,-1.02617 l 0.0764,0.18235 c 0.68067,1.62553 -0.13947,3.52152 -1.86973,4.21296 z m -4.71629,1.81706 c -0.87869,0.32602 -1.75966,0.64592 -2.64282,0.95966 l -0.0452,-0.12714 c -0.6015,-1.69314 0.34136,-3.57148 2.06789,-4.21803 0.84277,-0.31559 1.68342,-0.63691 2.5219,-0.9639 l 0.0718,0.18418 c 0.64028,1.64189 -0.2265,3.517 -1.97362,4.16523 z m -4.7604,1.69861 c -0.88663,0.30384 -1.77539,0.60145 -2.66622,0.89278 l -0.0419,-0.12823 c -0.5585,-1.70766 0.43145,-3.56145 2.17327,-4.16436 0.8503,-0.29431 1.69861,-0.59447 2.54488,-0.90039 l 0.0672,0.1859 c 0.59908,1.65729 -0.31419,3.51012 -2.07719,4.1143 z m -4.80187,1.57788 c -0.89407,0.28124 -1.79014,0.55615 -2.68814,0.82464 l -0.0386,-0.12925 c -0.51468,-1.72124 0.5222,-3.54899 2.27833,-4.10742 0.85734,-0.27263 1.71284,-0.5512 2.56641,-0.83566 l 0.0625,0.18753 c 0.55708,1.67175 -0.40253,3.50088 -2.18045,4.06016 z m -4.84068,1.45488 c -0.90102,0.25823 -1.8039,0.51 -2.70857,0.75524 l -0.0353,-0.13019 c -0.47005,-1.73389 0.61364,-3.53412 2.38307,-4.04723 0.86391,-0.25052 1.7261,-0.50711 2.5865,-0.76969 l 0.0577,0.18905 c 0.51427,1.68527 -0.49153,3.48928 -2.2834,4.00282 z m -4.87682,1.32962 c -0.90747,0.23479 -1.81667,0.463 -2.72753,0.68457 l -0.0319,-0.13107 c -0.4246,-1.74558 0.70575,-3.51681 2.48749,-3.98377 0.86999,-0.22801 1.7384,-0.46219 2.60514,-0.70248 l 0.0528,0.19046 c 0.47067,1.69784 -0.58118,3.47533 -2.38602,3.94229 z m -4.91031,1.20208 c -0.91344,0.21093 -1.82847,0.41516 -2.74501,0.61264 l -0.0284,-0.13188 c -0.37835,-1.75634 0.79853,-3.49708 2.59159,-3.91705 0.87559,-0.20508 1.74973,-0.41645 2.62234,-0.63404 l 0.0478,0.19177 c 0.42627,1.70947 -0.67149,3.45901 -2.48833,3.87856 z m -4.94101,1.07216 c -0.91876,0.18661 -1.83886,0.36646 -2.7602,0.53955 l -0.0249,-0.13258 c -0.33174,-1.76568 0.89078,-3.47463 2.69444,-3.84701 0.37266,-0.0769 0.74509,-0.15502 1.11727,-0.23423 0.5074,-0.10796 1.01436,-0.21804 1.52085,-0.33022 l 0.0427,0.19297 c 0.23877,1.07779 -0.11639,2.20638 -0.95823,2.98188 0,0 0,0 0,0 -0.453,0.41728 -1.01907,0.70515 -1.63196,0.82964 z m -4.9673,0.94091 c -0.92326,0.16235 -1.84768,0.31796 -2.77316,0.46687 l -0.0214,-0.13319 c -0.28538,-1.7738 0.98152,-3.45013 2.79461,-3.77483 0.88527,-0.15854 1.76939,-0.32339 2.65226,-0.49457 l 0.0376,0.19403 c 0.33536,1.72975 -0.85346,3.41877 -2.6899,3.74169 z m -4.98984,0.8104 c -0.92713,0.13821 -1.85524,0.26972 -2.78424,0.39456 l -0.018,-0.13371 c -0.23925,-1.7807 1.07078,-3.42365 2.89205,-3.70091 0.8892,-0.13537 1.77742,-0.27701 2.66456,-0.42495 l 0.0325,0.19495 c 0.28983,1.73794 -0.94291,3.39516 -2.78691,3.67006 z m -5.00901,0.68056 c -0.93036,0.1142 -1.861534,0.22174 -2.793426,0.32264 l -0.01452,-0.13413 c -0.193378,-1.78638 1.158566,-3.39519 2.986746,-3.62526 0.89252,-0.11232 1.78422,-0.23088 2.67501,-0.35571 l 0.0274,0.19574 c 0.24454,1.74494 -1.03091,3.3696 -2.88125,3.59672 z m -5.024767,0.55142 c -0.932972,0.0903 -1.866582,0.17401 -2.800734,0.25109 l -0.01109,-0.13447 c -0.147745,-1.79082 1.244882,-3.36473 3.078709,-3.54786 0.895226,-0.0894 1.789799,-0.185 2.683631,-0.28683 l 0.02238,0.19639 c 0.199498,1.75075 -1.117473,3.34207 -2.972892,3.52168 z m -5.03715,0.42295 c -0.934953,0.0666 -1.87037,0.12653 -2.806153,0.17993 l -0.0077,-0.13471 c -0.102356,-1.79405 1.329728,-3.33231 3.167937,-3.46873 0.897318,-0.0666 1.79415,-0.13937 2.690407,-0.21834 l 0.01735,0.19692 c 0.154695,1.75538 -1.202596,3.31258 -3.061858,3.44493 z m -5.046141,0.29518 c -0.936306,0.0429 -1.872901,0.0793 -2.809688,0.10914 l -0.0043,-0.13486 c -0.05721,-1.79606 1.413105,-3.29789 3.254429,-3.38787 0.898796,-0.0439 1.797274,-0.094 2.695343,-0.1502 l 0.01235,0.1973 c 0.110131,1.75883 -1.286278,3.28113 -3.148142,3.36649 z m -5.051744,0.16808 c -0.93703,0.0194 -1.874176,0.0323 -2.811338,0.0387 l -9.25e-4,-0.13492 c -0.01232,-1.79684 1.495013,-3.26148 3.338186,-3.30526 0.899661,-0.0214 1.799171,-0.0488 2.698438,-0.0824 l 0.0074,0.19755 c 0.06581,1.76109 -1.368518,3.24771 -3.231743,3.28634 z m -5.053958,0.0417 c -0.937127,-0.004 -1.874194,-0.0144 -2.811103,-0.0313 l 0.0024,-0.1349 c 0.03233,-1.7964 1.575451,-3.22308 3.419207,-3.22091 0.899912,0.001 1.79984,-0.004 2.699693,-0.0151 l 0.0024,0.19767 c 0.02172,1.76217 -1.449316,3.21234 -3.312661,3.20448 z m -5.052837,-0.084 c -0.936813,-0.027 -1.873929,-0.0607 -2.811136,-0.10173 l 0.0059,-0.1348 c 0.07388,-1.68779 1.48315,-3.03547 3.214624,-3.12997 0.09488,-0.005 0.189934,-0.007 0.284935,-0.004 0.899551,0.0234 1.799283,0.0407 2.699107,0.052 l -0.0025,0.19765 c -0.02066,1.64562 -1.340315,3.00679 -3.073793,3.1156 -0.105543,0.007 -0.211386,0.008 -0.317157,0.005 z m -5.05394,-0.21402 c -0.937212,-0.053 -1.874342,-0.11376 -2.811176,-0.1829 l 0.0099,-0.13456 c 0.132072,-1.79132 1.751764,-3.13084 3.587073,-3.03362 0.897442,0.0475 1.795627,0.088 2.694355,0.12208 l -0.0075,0.19754 c -0.06653,1.76047 -1.608076,3.13689 -3.472707,3.03146 z m -5.052352,-0.36468 c -0.936224,-0.0829 -1.871981,-0.17468 -2.807055,-0.27594 l 0.01452,-0.1341 c 0.193224,-1.78526 1.857315,-3.0679 3.683401,-2.91396 0.894027,0.0754 1.789165,0.14265 2.685215,0.20242 l -0.01317,0.19725 c -0.117376,1.75792 -1.69818,3.08946 -3.562906,2.92433 z m -5.043283,-0.53666 c -0.933848,-0.11677 -1.866843,-0.24352 -2.798769,-0.38084 l 0.01968,-0.13346 c 0.262052,-1.77674 1.974429,-2.99341 3.788522,-2.775 0.889257,0.10706 1.779993,0.20499 2.672009,0.29436 l -0.01972,0.19665 c -0.175709,1.75253 -1.799662,3.03114 -3.661729,2.79829 z m -5.024745,-0.72633 c -0.930608,-0.15229 -1.862943,-0.31631 -2.794902,-0.49668 l 0.02563,-0.13265 c 0.340473,-1.76237 2.10678,-2.91167 3.906127,-2.62208 0.288265,0.0464 0.576876,0.092 0.865765,0.13684 0.596436,0.0918 1.193682,0.17898 1.791678,0.26182 l -0.0271,0.19576 c -0.165756,1.19719 -1.016439,2.19486 -2.227976,2.55797 0,0 0,0 0,0 -0.494165,0.14923 -1.021726,0.18371 -1.539214,0.099 z m -5.023307,-0.96184 c -0.930024,-0.20937 -1.857996,-0.43876 -2.781815,-0.69278 l 0.03565,-0.13 c 0.473043,-1.72492 2.31774,-2.7337 4.061525,-2.35995 0.866856,0.1858 1.740578,0.35589 2.619208,0.51456 l -0.03517,0.1948 c -0.312812,1.73273 -2.035247,2.89304 -3.899402,2.47337 z m -4.983527,-1.34999 c -0.753066,-0.24359 -1.502192,-0.50631 -2.246207,-0.79073 -0.16108,-0.0578 -0.322918,-0.11746 -0.485269,-0.17912 l 0.05017,-0.12607 c 0.221777,-0.5573 0.607905,-1.04299 1.091043,-1.40181 0.915927,-0.68128 2.107599,-0.88032 3.183959,-0.54751 0.834944,0.25817 1.680357,0.49273 2.534282,0.70797 l -0.04847,0.19156 c -0.430963,1.70338 -2.228237,2.74451 -4.079512,2.14571 z m -4.926066,-1.93579 c -0.911524,-0.46644 -1.804477,-1.01917 -2.635232,-1.68671 l 0.08288,-0.10503 c 0.520792,-0.65996 1.352011,-1.07717 2.167138,-1.25428 0.829819,-0.1803 1.674612,-0.12307 2.42974,0.22818 0.597991,0.27816 1.221275,0.54066 1.850722,0.80002 0.17997,0.0696 0.360558,0.13771 0.541744,0.20453 l -0.0681,0.18543 c -0.226367,0.61639 -0.638553,1.14723 -1.202677,1.50725 -0.89117,0.57138 -2.086525,0.6731 -3.166215,0.12061 z m -4.482366,-3.51779 c -0.06887,-0.085 -0.136806,-0.17136 -0.203774,-0.25904 -0.630609,-0.90124 -1.051515,-1.90144 -1.267905,-2.93493 l 0.131567,-0.0268 c 1.305311,-0.26638 3.023349,0.54586 3.788994,1.03551 0,0 0,0 0,0 0.186453,0.14602 0.356501,0.30607 0.511283,0.48214 0.477135,0.54275 1.070856,1.01075 1.740531,1.43057 l -0.107553,0.16578 c -0.909075,1.40128 -3.275126,1.73402 -4.593143,0.10682 z m -1.569584,-5.96801 c 0.0353,-0.26023 0.0831,-0.51892 0.143313,-0.77503 0.202287,-0.82096 0.478031,-1.59904 0.804379,-2.3381 l 0.122766,0.055 c 1.212025,0.54273 1.927875,1.86817 2.156924,3.00096 0,0 0,0 0,0 0.07469,0.3311 0.106641,0.6454 0.09145,0.95996 -0.03273,0.67788 0.06657,1.35823 0.30449,1.95772 l -0.182213,0.0726 c -0.780498,0.31111 -1.644383,0.35602 -2.401904,-0.20733 -0.7475,-0.5559 -1.191917,-1.60011 -1.039209,-2.72578 z m 2.092137,-5.27677 c 0.365988,-0.59695 0.753934,-1.16547 1.147142,-1.70837 0.169348,-0.2392 0.340674,-0.47602 0.51369,-0.71068 l 0.108572,0.08 c 0.636014,0.46857 1.066107,1.16914 1.242053,1.94734 0.210405,0.9296 0.04655,1.89038 -0.399729,2.65319 -0.419131,0.71642 -0.775486,1.43324 -1.023254,2.15821 l -0.186043,-0.0639 c -0.802392,-0.27561 -1.459317,-0.83124 -1.750066,-1.68925 -0.28795,-0.84975 -0.155062,-1.84659 0.347635,-2.66652 z m 3.059779,-4.23437 c 0.59495,-0.74291 1.200122,-1.46818 1.805156,-2.18333 l 0.103043,0.0872 c 1.379039,1.16654 1.486441,3.25642 0.370858,4.67354 -0.493951,0.62747 -0.970998,1.26016 -1.423976,1.90328 -0.04685,0.0682 -0.09351,0.13627 -0.139964,0.20432 l -0.162357,-0.11332 c -0.347203,-0.24231 -0.642239,-0.55133 -0.863791,-0.91455 0,0 0,0 0,0 -0.677412,-1.11001 -0.557496,-2.57257 0.311031,-3.65711 z"
       id="path4"
       inkscape:path-effect="#path-effect5;#path-effect7"
       inkscape:original-d="m 180.92033,115.5207 c 2.30507,-1.13934 4.60464,-2.27597 6.90295,-3.41197 6.75892,4.92019 13.47497,9.80918 20.3003,14.77772 -29.75658,15.97458 -58.39419,31.34846 -88.50376,47.51254 -34.22982,-2.47215 -67.076532,-4.84441 -100.614802,-7.26662 6.707789,-7.88786 13.41531,-15.77541 20.122961,-23.66311"
       sodipodi:nodetypes="cccccc" />
    <path
       style="fill:none;stroke:#000000;stroke-width:1.165;stroke-linecap:butt;stroke-linejoin:miter;stroke-dasharray:none;stroke-opacity:1"
       d="m 151.82494,79.537761 c 0.67707,-0.6105 1.33472,-1.224488 1.95689,-1.852599 l 0.0963,0.09454 c 1.28526,1.261675 1.25504,3.378022 -0.22944,4.698024 -0.69467,0.617701 -1.39221,1.215628 -2.07766,1.803685 l -0.12969,-0.14915 c -1.15929,-1.333182 -0.957,-3.385729 0.38358,-4.594504 z m 3.36985,-3.388032 c 0.55532,-0.65741 1.06233,-1.337427 1.50495,-2.050688 l 0.11378,0.07185 c 1.518,0.958649 1.94394,3.037861 0.54887,4.632774 -0.63335,0.72407 -1.29713,1.410131 -1.97638,2.068089 l -0.13745,-0.142858 c -1.23423,-1.282796 -1.11222,-3.32614 -0.0538,-4.579167 z m 2.43181,-3.790016 c 0.32976,-0.746591 0.58295,-1.518518 0.74041,-2.300377 l 0.13205,0.02667 c 0.84751,0.17114 1.59543,0.647875 2.0028,1.475245 0.40451,0.821558 0.39457,1.859925 -0.0567,2.776188 -0.18427,0.374183 -0.38318,0.740026 -0.59549,1.09654 -0.30405,0.503041 -0.62613,0.98794 -0.96317,1.456726 l -0.15983,-0.114461 c -0.8995,-0.644194 -1.36567,-1.761604 -1.3973,-2.834294 0,0 0,-10e-7 0,-10e-7 -0.0175,-0.561616 0.0832,-1.097782 0.29719,-1.582233 z m 0.94248,-4.194433 c 0.0118,-0.803894 -0.0691,-1.621276 -0.22213,-2.438335 l 0.13283,-0.02449 c 1.72364,-0.31778 3.58066,0.885634 3.44432,3.190982 -0.013,0.219719 -0.031,0.439812 -0.054,0.660154 -0.0935,0.814198 -0.25875,1.612196 -0.48706,2.387014 l -0.18935,-0.05608 c -1.24517,-0.368767 -2.15378,-1.579027 -2.48382,-2.681664 0,0 0,0 0,0 -0.0982,-0.342184 -0.14589,-0.688816 -0.14076,-1.037585 z m -0.71554,-4.385945 c -0.0274,-0.08686 -0.0555,-0.173588 -0.0842,-0.260168 -0.24504,-0.740292 -0.52447,-1.46851 -0.83393,-2.186246 l 0.12317,-0.05332 c 1.33393,-0.577463 2.91719,-0.180484 3.8098,1.192181 0,0 0,0 0,0 0.17687,0.275595 0.31451,0.579385 0.40664,0.900445 0.27422,0.955578 0.47511,1.943052 0.58345,2.949563 l -0.19631,0.02168 c -1.709,0.188745 -3.35098,-1.114093 -3.80867,-2.564135 z m -1.81668,-4.34692 c -0.40299,-0.784643 -0.83878,-1.557912 -1.30124,-2.322046 l 0.1154,-0.06941 c 1.53271,-0.921858 3.58195,-0.388548 4.46663,1.414963 0.41643,0.848935 0.80291,1.716285 1.15372,2.604139 l -0.18336,0.07182 c -1.62771,0.637508 -3.49069,-0.218769 -4.25115,-1.699461 z m -2.45573,-4.134326 c -0.50112,-0.750986 -1.02402,-1.494623 -1.56257,-2.233151 l 0.10974,-0.07975 c 1.45892,-1.060166 3.55471,-0.699402 4.62074,0.956714 0.50736,0.788196 0.99527,1.590971 1.45803,2.410408 l -0.17131,0.09724 c -1.51767,0.861468 -3.49536,0.286111 -4.45463,-1.151467 z m -2.87809,-3.991838 c -0.55962,-0.731802 -1.12999,-1.460281 -1.70499,-2.187676 l 0.10618,-0.08433 c 1.40845,-1.118583 3.51812,-0.851077 4.68096,0.690039 0.55957,0.741592 1.11021,1.493923 1.64622,2.259079 l -0.16234,0.114237 c -1.44078,1.013847 -3.48056,0.628108 -4.56603,-0.791352 z m -3.08667,-3.927406 c -0.0545,-0.06849 -0.10897,-0.136979 -0.16345,-0.205479 -0.52237,-0.650786 -1.04908,-1.298412 -1.57973,-1.943228 l 0.10415,-0.08572 c 1.14069,-0.938852 2.79635,-0.962287 4.03383,-0.0252 0,0 0,0 0,0 0.23315,0.17442 0.44456,0.377908 0.62872,0.605791 0.57307,0.709122 1.14773,1.425144 1.71827,2.150152 l -0.15645,0.122799 c -1.39347,1.093759 -3.44984,0.808113 -4.58534,-0.619117 z m -3.15391,-3.845913 c -0.5931,-0.706702 -1.19053,-1.410352 -1.79172,-2.111421 l 0.1024,-0.0878 c 1.36338,-1.169029 3.459,-0.9679 4.67281,0.485684 0.58565,0.701336 1.1676,1.406342 1.74531,2.115454 l -0.15323,0.12481 c -1.36576,1.112428 -3.41123,0.86063 -4.57557,-0.526729 z m -3.23725,-3.784393 c -0.60682,-0.697248 -1.21695,-1.392288 -1.8298,-2.085589 l 0.10108,-0.08934 c 1.34603,-1.189664 3.44422,-1.019469 4.68088,0.407244 0.59748,0.689308 1.19224,1.381481 1.78374,2.076955 l -0.15053,0.128033 c -1.34154,1.141064 -3.39244,0.933404 -4.58537,-0.437299 z m -3.30129,-3.741585 c -0.61685,-0.690827 -1.23597,-1.38029 -1.8568,-2.068857 l 0.10022,-0.09035 c 1.33445,-1.203078 3.43411,-1.053218 4.68607,0.352808 0.6057,0.680241 1.20967,1.362542 1.81135,2.047341 l -0.14847,0.130469 c -1.32318,1.162769 -3.37805,0.988548 -4.59237,-0.371409 z m -3.3454,-3.715136 c -0.62318,-0.687438 -1.2476,-1.374357 -1.8727,-2.061223 l 0.0998,-0.09082 c 1.32867,-1.209295 3.42864,-1.06912 4.68841,0.322376 0.61031,0.674136 1.21987,1.349528 1.82813,2.026613 l -0.14706,0.132119 c -1.31064,1.177523 -3.3681,1.026084 -4.59657,-0.329061 z"
       id="path7"
       inkscape:path-effect="#path-effect8;#path-effect9"
       inkscape:original-d="M 150.45937,83.002979 C 156.5199,77.732947 162.58044,72.462918 168.64097,67.192887 156.16832,53.490534 143.69616,39.788729 131.22376,26.086651" />
  </g>
</svg>
